<svg xmlns="http://www.w3.org/2000/svg" viewBox="0 0 151.6 45.75"><defs><style>.cls-1{fill:#fff;}.cls-2{fill:#39b54a;}</style></defs><title>Asset 3</title><g id="Layer_2" data-name="Layer 2"><g id="Layer_1-2" data-name="Layer 1"><path class="cls-1" d="M17.25,11.1v5.37H10.17V27.52c0,2.84,1.4,4,4.29,4a7.17,7.17,0,0,0,3-.73v5.37a8.88,8.88,0,0,1-4.95,1.24c-6,0-9-3.2-9-8.41V16.47H0V15L8.16,5.47h2V11.1Z"/><path class="cls-1" d="M33.3,17.71c-3.14,0-5.31,1.65-5.31,6.51V37.07H21.33v-26h6.3l.05,5.63c1.13-3.41,3.25-6,7-6a4.3,4.3,0,0,1,3.1,1.19l-1.24,6.66A6.55,6.55,0,0,0,33.3,17.71Z"/><path class="cls-1" d="M59.79,37.07H53.55l-.06-4.33a6.92,6.92,0,0,1-6.86,4.75c-5.12,0-8.32-3.57-8.32-7.75,0-7.12,6.3-8,11.52-8.52l3.41-.31v-.57c0-2.63-2.53-4-6.15-4a16.21,16.21,0,0,0-7.9,2.11l1.6-6.09a17.08,17.08,0,0,1,7.8-1.7c6,0,11.2,2.84,11.2,9.55Zm-11-4.85c2.37,0,4.44-2,4.44-5.16V25.25l-3.67.36c-3.1.31-4.6,1.24-4.6,3.36C45,30.77,46.16,32.22,48.8,32.22Z"/><path class="cls-1" d="M62.17,11.1H69.6l5.94,19.36L81.43,11.1h7.12l-9,26H71.21Z"/><path class="cls-1" d="M101.31,37.64c-7.28,0-11.88-5.88-11.88-13.58s4.6-13.53,12-13.53a9.29,9.29,0,0,1,8.62,5V0h6.67V37.07h-6.46l0-4.85A9.35,9.35,0,0,1,101.31,37.64ZM96.15,24.06c0,4.29,2.42,7.85,7,7.85S110,28.35,110,24.06s-2.37-7.79-6.91-7.79S96.15,19.78,96.15,24.06Z"/><path class="cls-1" d="M127.13,11.1l5.83,18,5.58-18h6.86l-9,25.61c-2,5.68-4.7,9-10.43,9a7.46,7.46,0,0,1-4.44-1.24V39a8.07,8.07,0,0,0,3.41.77c2.58,0,3.87-1.08,4.33-2.94l-9.5-25.77Z"/><path class="cls-2" d="M144.11,29.23h7.49v7.84h-7.49Z"/></g></g></svg>